<svg width="32" height="32" viewBox="0 0 32 32" fill="none" xmlns="http://www.w3.org/2000/svg">
  <!-- Background circle with gradient -->
  <defs>
    <radialGradient id="bg" cx="0.5" cy="0.5" r="0.6">
      <stop offset="0%" stop-color="#6366f1"/>
      <stop offset="100%" stop-color="#4338ca"/>
    </radialGradient>
  </defs>
  <circle cx="16" cy="16" r="16" fill="url(#bg)"/>
  
  <!-- DNA Double Helix -->
  <path d="M10 8C10 8 12 10 14 12C16 14 18 12 20 10C22 8 22 8 22 8" stroke="white" stroke-width="2" fill="none" stroke-linecap="round"/>
  <path d="M10 12C10 12 12 14 14 16C16 18 18 16 20 14C22 12 22 12 22 12" stroke="white" stroke-width="2" fill="none" stroke-linecap="round"/>
  <path d="M10 16C10 16 12 18 14 20C16 22 18 20 20 18C22 16 22 16 22 16" stroke="white" stroke-width="2" fill="none" stroke-linecap="round"/>
  <path d="M10 20C10 20 12 22 14 24C16 26 18 24 20 22C22 20 22 20 22 20" stroke="white" stroke-width="2" fill="none" stroke-linecap="round"/>
  
  <!-- Connection lines -->
  <line x1="11" y1="10" x2="21" y2="10" stroke="white" stroke-width="1" opacity="0.6"/>
  <line x1="11" y1="14" x2="21" y2="14" stroke="white" stroke-width="1" opacity="0.6"/>
  <line x1="11" y1="18" x2="21" y2="18" stroke="white" stroke-width="1" opacity="0.6"/>
  <line x1="11" y1="22" x2="21" y2="22" stroke="white" stroke-width="1" opacity="0.6"/>
</svg> 